<?xml version="1.0" encoding="UTF-8"?>
<!DOCTYPE svg PUBLIC "-//W3C//DTD SVG 1.1//EN" "http://www.w3.org/Graphics/SVG/1.1/DTD/svg11.dtd">
<!-- Creator: CorelDRAW -->
<svg xmlns="http://www.w3.org/2000/svg" xml:space="preserve" width="472.578mm" height="288.863mm" version="1.1" style="shape-rendering:geometricPrecision; text-rendering:geometricPrecision; image-rendering:optimizeQuality; fill-rule:evenodd; clip-rule:evenodd"
viewBox="0 0 48976.73 29936.95"
 xmlns:xlink="http://www.w3.org/1999/xlink"
 xmlns:xodm="http://www.corel.com/coreldraw/odm/2003">
 <defs>
  <style type="text/css">
   <![CDATA[
    .fil0 {fill:#FEFEFE;fill-rule:nonzero}
    .fil1 {fill:#EBB571;fill-rule:nonzero}
   ]]>
  </style>
 </defs>
 <g id="Camada_x0020_1">
  <metadata id="CorelCorpID_0Corel-Layer"/>
  <g id="_1374795612160">
   <path class="fil0" d="M13895.62 7144.87c-583.04,43.21 -1014.54,-59.66 -1288.79,-306.3 -274.47,-249.4 -428.49,-582.04 -459.12,-995.35 -25.37,-342.16 8.07,-707.97 100.69,-1091.92 95.39,-384.13 231.83,-771.32 412.27,-1159.02 183.17,-387.9 394.73,-764.15 637.63,-1126.2 245.43,-364.99 504.23,-697.97 778.97,-1001.82 274.74,-303.86 550.16,-560.97 829.08,-771.57 260.74,-195.48 524.32,-352.65 793.28,-474.41 268.97,-121.78 538.85,-194.09 804.36,-213.76 268.27,-19.91 502.87,26.01 706.55,137.54 203.68,111.5 315.72,323.4 339.05,638.18 9.55,128.63 -8.58,292.38 -51.66,490.99 -43.09,198.61 -113.71,396.51 -206.28,596.06 -94.68,207.92 -213.9,381.92 -357.64,521.93 -141.01,139.81 -300.38,217.68 -478.31,230.86 -62.96,4.66 -148.84,-2.72 -257.62,-22.19 -109,-22.19 -166.28,-89.49 -174.62,-201.73 -2.62,-35.59 5.09,-80.18 20.6,-130.88 15.31,-53.43 49.35,-113.76 99.23,-183.5 67.82,-87.59 139.69,-194.79 215.63,-321.52 75.73,-129.45 140.5,-258.12 191.17,-391.24 53.44,-133.31 75.01,-250.52 67.71,-349.06 -14.81,-199.8 -115.37,-294.2 -304.26,-280.19 -134.14,9.93 -284.16,65.1 -447.21,168 -163.2,100.21 -332.21,233.83 -506.97,400.93 -177.52,167.28 -365.47,379.41 -566.62,636.49 -201.1,257.13 -397.68,538.69 -589.47,847.39 -192.01,306.01 -364.24,618.77 -519.23,941.29 -152.45,319.58 -269.76,631.03 -354.38,937.31 -81.89,306.07 -113.8,580.93 -95.37,830.04 17.06,229.92 90.86,408.86 224.42,539.32 133.32,127.74 340.95,181.17 622.91,160.26 188.88,-14.01 387.99,-75.55 602.81,-185.05 214.61,-112.26 432.9,-249.56 652.07,-411.66 221.92,-162.33 435.01,-332.26 642.43,-504.52 207.22,-175.01 396.5,-332.16 570.34,-474.43 173.87,-142.24 325.75,-247.06 450.14,-314.09 12.66,-14.69 31.42,-21.59 56.08,-23.42 46.52,-3.45 82.21,32.45 107.06,107.66 20.17,86.58 34.89,173.56 41.39,261.17 3.86,51.99 0.5,118.31 -7.31,198.7 -8.02,77.68 -45.29,168.51 -111.7,275.26 -187.22,258.83 -411.07,506.64 -671.52,743.37 -260.65,234 -539.54,444.6 -831.41,628.63 -291.86,184.04 -583.64,332.27 -875.31,444.72 -288.93,112.26 -559.24,179.09 -811.06,197.76zm2798.55 -193.73c-112.22,8.33 -199.51,-18.22 -261.88,-79.66 -64.88,-58.51 -101.08,-138.39 -108.16,-234.18 -9.75,-131.4 32,-310.64 122.73,-534.81 85.25,-223.75 185.08,-473.38 296.8,-748.65 114.44,-275.46 224.02,-542.29 334.22,-800.92 110.18,-258.64 198.78,-474.39 265.79,-647.26l1330.67 -3175.78c29.69,-82.03 98.11,-161.44 202.93,-232.5 107.36,-74.01 214.42,-114.98 323.92,-123.11 139.6,-10.33 237.45,9.93 293.3,58.09 58.61,47.94 90.63,108.88 96.12,182.8 5.07,68.42 -5.88,143.55 -35.57,225.57 -29.9,79.27 -62.95,153.3 -101.89,222.24 -227.16,462.73 -449.37,955.34 -666.41,1480.63 -217.02,525.29 -446.63,1029.46 -691.33,1515.53 111.72,-126.64 231.85,-251.14 359.99,-379 130.86,-128.04 279.39,-240.91 445.97,-333.06 166.37,-94.92 363.13,-150.79 584.86,-167.22 208.05,-15.44 389,12.44 542.93,83.61 153.67,68.4 238.55,210.77 254.38,424.26 15.02,202.58 -15.17,389.22 -93.13,562.86 -75.21,173.49 -167.69,337.24 -274.4,493.78 -106.97,153.81 -202.77,309.55 -292.48,473.06 -89.92,160.8 -137.77,332.23 -143.33,517.07l1.42 19.16 -1.33 19.36c4.66,62.95 29.4,99.67 71.7,113.05 42.27,13.36 97.63,17.53 163.31,12.66 128.69,-9.56 265.65,-55.48 408.17,-137.61 145.27,-82.34 289.33,-181.09 432.19,-296.27 140.1,-114.96 269.07,-231.87 389.6,-350.9 120.53,-119.03 214.93,-219.62 288.6,-302.15 48.36,-53.11 106.77,-82.21 172.45,-87.1 57.49,-4.26 105.65,14.19 147.02,52.4 44.11,38.03 67.51,94.09 73,168.01 4.86,65.69 -11.37,143.97 -51.59,232.27 -40.25,88.3 -110.6,178.85 -213.81,271.83 -212.78,211.16 -431.65,414.55 -659.55,607.61 -227.91,193.06 -460.97,353.46 -696.27,483.74 -235.51,127.57 -469.59,199.96 -705,217.39 -221.72,16.45 -406.26,-22.17 -547.88,-113.49 -141.64,-91.35 -222.06,-247.79 -238.28,-466.75 -16.02,-216.27 17.82,-427.95 101.75,-632.34 83.73,-207.11 182.36,-398.84 292.94,-577.71 110.62,-178.85 200.75,-336.89 267.86,-471.23 31.71,-54.64 58.18,-106.17 73.87,-154.1 18.47,-48.17 25.75,-98.24 21.69,-153.01 -7.91,-106.75 -63.76,-154.89 -167.8,-147.18 -243.61,18.06 -459.66,111.14 -645.38,279.04 -185.94,165.16 -349.85,367.22 -492.18,600.72 -142.31,233.48 -271.59,457.77 -387.52,675.54 -55.88,100.45 -112.62,225.77 -170.51,373.2 -58.09,144.67 -126.72,295.64 -200.63,449.73 -69.02,145.5 -145.36,266.74 -234.06,369.66 -86.17,99.96 -178.51,153.58 -279.81,161.09zm5332.31 -395.3c-251.82,18.68 -470,-28.46 -657.06,-138.43 -187.06,-110 -333.36,-264.31 -441.44,-459.96 -108.09,-195.65 -170.85,-411.18 -188.1,-643.87 -15.22,-205.28 25.43,-436.73 124.45,-697.31 98.84,-263.29 250.7,-516.77 455.16,-765.88 201.75,-248.91 450.11,-462.73 745.53,-636.02 295.22,-176 623.49,-277.43 984.83,-304.22 260.05,-19.27 461.8,29.07 599.78,145.46 137.99,116.41 216.65,286.71 233.1,508.43 9.73,131.4 -15.5,273.62 -73.15,423.78 -57.68,150.16 -167.37,304.18 -326.16,464.54 -158.54,163.14 -374.37,333.29 -647.47,510.41 -273.14,177.14 -617.4,359.55 -1032.87,547.23 49.98,191.71 213.32,278.69 492.53,257.97 216.27,-16.02 448.43,-77.25 690.84,-186.06 245.12,-109.01 481.23,-228.35 705.19,-363.29 224.36,-129.49 413.51,-250.85 573,-364.52 159.46,-113.66 256.68,-175.91 285.77,-191.82 28.71,-21.38 52.53,-34.16 74.23,-38.53 24.43,-4.55 46.13,-8.94 65.29,-10.35 73.91,-5.47 128.15,20.78 162.5,76.02 34.38,55.27 54.46,103.33 57.31,141.64 2.01,27.37 1.7,60.43 -3.45,102.09 -2.65,38.75 -21.3,84.15 -58.5,139.2 -38,44.11 -151.97,140.64 -341.41,295.08 -186.76,154.19 -387.79,301.21 -605.46,446.71 -264.91,176.54 -561.34,336.11 -894.36,484.68 -330.3,148.34 -657.04,233.1 -980.07,257.03zm-334.74 -1582.55c197.38,-121.99 396.28,-260.59 596.51,-418.54 200.01,-160.72 353.8,-276.72 461.14,-350.72 140.73,-106.75 230.46,-196 271.52,-273.33 48.85,-83.44 71.36,-151.2 67.51,-203.19 -3.45,-46.52 -22.73,-83.61 -54.87,-108.76 -32.35,-27.89 -66.41,-41.89 -105.14,-44.51l-41.45 -2.45 -43.8 3.25c-172.45,12.79 -327.57,73.84 -468.07,183.34 -137.79,109.29 -251.84,241.6 -342.16,396.94 -95.2,163.93 -169.27,315.31 -225.06,454.3 -53,138.79 -93.54,260.13 -116.14,363.65zm3728.05 4028.32c-123.17,9.15 -224.94,-27.34 -302.4,-106.92 -74.74,-79.81 -117.81,-178.42 -126.55,-296.14 -9.33,-125.91 9.81,-275.96 57.66,-447.41 50.59,-171.64 122.05,-358.59 214.38,-560.85 187.64,-402 457.9,-840.4 810.39,-1320.65l530.59 -788c-227.18,239.79 -445.36,415.61 -654.71,524.71 -209.35,109.1 -386.56,169.02 -531.63,179.78 -249.11,18.47 -465.27,-75.61 -648.49,-282.2 -180.66,-209.54 -283.28,-479.92 -308.04,-813.91 -25.58,-344.87 17.01,-661.82 130.44,-950.98 113.22,-291.86 265.26,-542.6 461.46,-755.32 193.62,-209.77 412.39,-377.36 656.3,-502.81 246.66,-125.62 488.98,-198.63 732.59,-216.7 139.6,-10.35 261.25,-2.85 367.91,25.01 106.65,27.91 196.89,57 271.09,92.79 42.9,21.59 83.25,46.13 120.86,70.85 37.4,22 75.21,49.46 107.58,77.34 49.37,-39.44 94.08,-67.53 136.45,-89.95 42.17,-25.12 90.02,-47.95 140.81,-68.23 53.33,-23.23 107.46,-35.49 159.48,-39.34 139.6,-10.32 248.39,9.1 326.56,61.09 80.91,51.82 124.12,114.69 129.99,194.04 3.05,41.08 -4.87,82.97 -23.71,125.65l-951.05 2170.55 84.43 -86.08c353.52,-243.64 647.32,-438.82 876.32,-579.63 229.03,-140.86 413.74,-248.13 551.6,-318.9 106.05,-54.64 193.75,-96.93 263.5,-121.38 72.49,-24.63 120.96,-39.25 145.6,-41.06 73.89,-5.49 130.67,17.85 173.06,69.73 45.12,51.73 69.34,118.74 75.42,200.85 6.71,90.32 -13.78,185.44 -58.67,285.11 -45.11,96.9 -119.41,171.22 -223.13,220.22 -176.52,106.65 -390.53,227.09 -642.03,361.36 -251.53,134.24 -512.58,288.46 -783.16,462.65 -270.77,171.47 -522.9,371.81 -759.12,601.23l-791.5 1723.87c-119.32,358.41 -230.5,603.35 -333.62,734.85 -95.29,125.4 -225.15,192.84 -386.67,204.8zm289.45 -3632.55c95.81,-7.11 214.53,-76.45 353.41,-207.86 138.68,-134.13 270.48,-287.04 392.42,-461.21 127.64,-171.85 231.03,-336.4 313.14,-491.13 84.85,-154.92 123.49,-265.14 118.81,-328.08 -10.14,-136.85 -83.53,-236 -220.02,-294.69 -133.7,-58.9 -248.58,-86.17 -341.66,-79.27 -199.8,14.81 -381.29,91.57 -547.34,227.72 -163.34,135.97 -293.48,310.79 -388.17,518.71 -91.96,207.75 -131.06,422.57 -114.61,644.31 7.91,106.75 38.12,217.35 90.23,326.33 52.13,108.99 165.89,158.34 343.8,145.16zm3946.17 621.22c-125.91,9.35 -270.69,-12.92 -434.52,-69.6 -163.85,-56.66 -308.61,-153.26 -437.28,-292.36 -125.93,-139.32 -197.82,-329.39 -215.89,-573 -14.42,-194.36 14.48,-435.96 86.64,-724.8 72.19,-288.87 193.62,-581.34 364.73,-872.02 173.64,-293.59 408.23,-544.97 698.28,-753.62 289.85,-211.41 636.07,-330.67 1038.45,-360.49 161.51,-11.97 333.46,5.58 518.59,52.4 184.92,44.08 345.7,133.99 484.72,264.08 139,130.08 218.89,316.81 237.15,563.16 14.82,199.82 -17.01,438.89 -98.61,711.94 62.56,64.14 144.58,93.85 248.62,86.15 95.81,-7.11 207.92,-53.95 330.71,-142.88 122.75,-88.9 244.31,-194.26 361.91,-315.82 120.32,-121.76 226.78,-245.27 325.21,-365.39 98.43,-120.16 173.64,-219.33 226.06,-291.99 20.28,-23.53 46.84,-36.5 79.68,-38.95 68.44,-5.07 123.69,34.85 160.49,122.98 36.62,85.35 39.26,195.25 5.4,332.61 -33.87,137.4 -125,281.76 -275.93,436.09 -88.3,108.38 -194.13,240.1 -320.24,395.31 -126.12,155.23 -264.4,294.83 -414.84,418.81 -150.43,124.03 -307.9,190.72 -469.39,202.69 -166.97,12.4 -326.85,-28.05 -482.57,-123.85 -205.7,381.31 -482.56,693.6 -825.51,930.94 -342.97,237.36 -740.18,374.14 -1191.86,407.62zm349.51 -854.36c199.85,-14.81 378.38,-94.1 541.09,-238.28 162.5,-146.91 289.74,-324.23 381.68,-531.98 91.73,-210.47 131.26,-419.82 115.64,-630.6 -6.09,-82.11 -20.57,-166.38 -46.46,-255.27 -23.1,-89.13 -66.9,-160.2 -131.6,-215.96 -62.15,-58.7 -160.17,-81.69 -291.57,-71.95 -194.36,14.4 -375.83,91.15 -539.16,227.12 -163.29,135.95 -293.66,308.01 -388.55,513.21 -92.34,202.26 -131.88,411.61 -116.05,625.13 5.88,79.4 20.59,166.38 46.86,260.78 26.24,94.35 73.4,173.47 138.71,237.4 68.04,63.77 163.54,89.74 289.42,80.39zm3523.85 567.22c-205.32,15.22 -392.38,-20.44 -560.97,-104.28 -168.8,-86.58 -264.52,-263.87 -284.63,-534.88 -1.62,-21.89 4.66,-85.66 16.14,-191.1 14.17,-105.65 42.76,-239.88 82.99,-402.5 50.88,-204.7 135.82,-469.71 251.91,-797.58 118.78,-328.08 290.01,-728.88 516.56,-1199.82 56.98,-122.56 127.33,-213.11 208.32,-271.41 83.73,-58.51 174.76,-92.78 276.07,-100.29 101.27,-7.5 193.44,10.45 281.96,53.4 88.29,40.25 137.37,108.17 144.07,198.51 2.24,30.12 -1.01,60.64 -7,91.37 -16.6,72.77 -68.54,189.47 -153.16,347.11 -84.65,157.69 -180.95,343.71 -283.45,557.75 -103.51,200.33 -192.31,413.34 -268.94,641.98 -74.09,225.68 -110.66,437.57 -107.21,632.73 4.26,57.49 24.54,108.27 58.11,152.57 36.28,44.09 89.94,62.15 163.81,56.66 205.32,-15.21 392.88,-84.15 567.95,-210 175.06,-125.82 337.19,-278.19 485.89,-462.62 148.72,-184.42 277.68,-375.64 389.38,-576.59 111.72,-200.96 202.74,-383.87 275.64,-551.66 69.03,-145.48 126.09,-303.84 174.34,-469.8 48.25,-165.99 109.08,-310.85 179.92,-431.69 73.42,-123.83 178.62,-189.43 318.25,-199.78 112.21,-8.31 205.2,20.59 276.36,89.63 70.97,66.32 110.1,148.72 117.64,250 6.07,82.11 -27.99,216.76 -104.91,404.12 -76.96,187.35 -160.9,391.74 -254.75,610.63 -101.46,227.72 -186.11,459.68 -256.87,693.38 -68,233.48 -96.8,439.29 -83.8,614.49 8.32,112.24 81.02,164.66 220.62,154.31 210.76,-15.63 476.59,-142.7 797.25,-383.89 148.52,-112.87 298.35,-245.05 446.99,-393.69 148.39,-151.36 277.02,-309.55 388.26,-480.19l94.02 637.1c-192.72,259.24 -427.91,502.38 -711.06,729.79 -283.16,227.41 -559,404.76 -830.69,526.72 -279.12,133.56 -520.91,176.25 -719.73,130.44 -198.8,-45.83 -310.33,-213.69 -332.05,-506.59 -10.95,-147.81 1.31,-316.61 39.31,-509.36 -94.8,169.42 -227.9,341.67 -393.66,519.1 -165.74,177.44 -369.1,330.15 -604.4,460.43 -235.51,127.55 -505.18,202.58 -814.49,225.5z"/>
   <path class="fil0" d="M12125.16 21221.23c-76.65,5.69 -146.51,-8.4 -206.84,-42.47 -62.85,-31.11 -97.43,-89.09 -103.5,-171.23 -5.49,-73.89 21.99,-186.02 84.74,-342.04l1402.7 -3651.84 -251.84 18.68c-172.43,12.79 -292.18,-5.83 -358.99,-53.19 -67.01,-50.09 -101.79,-110.83 -107.06,-181.99 -5.49,-73.91 27.34,-150.63 101.45,-227.7 74.12,-77.05 183.69,-120.96 334.25,-132.12l558.43 -41.39c253.51,-627.08 514.85,-1111.6 789.07,-1459.45 274.23,-347.87 547.74,-593.84 820.36,-740.67 272.57,-146.81 533.44,-229.47 782.52,-247.94 177.92,-13.17 339.25,46.44 483.72,176.09 144.46,129.65 228.32,332.63 249.24,614.58 9.73,131.37 1.54,280.62 -24.41,450.45 -12.86,86.27 -57.47,152.88 -134.22,194.33 -76.74,41.49 -141.22,62.78 -193.21,66.63 -62.98,4.66 -121.47,-4.75 -178.46,-30.79 -54.24,-26.26 -85.06,-70.77 -89.72,-133.73 -2.22,-30.12 -2.33,-68.62 2.64,-113.04 1.1,-22.11 -1.54,-57.69 -5,-104.24 -18.06,-243.62 -117.52,-360.09 -295.43,-346.89 -125.93,9.33 -273.97,91.87 -446.78,247.81 -172.86,155.92 -337.01,355.28 -495.14,598.17 -158.14,242.92 -282.41,497.09 -370.09,762.34l1097.66 -81.38c205.28,-15.22 373.08,-16.65 506.09,-4.51 135.78,11.97 207.34,86.49 217.29,220.6 5.88,79.4 -19.16,150.07 -74.92,214.75 -53.03,64.47 -159.89,108.18 -317.62,133.64 -292.09,32.66 -579.1,59.44 -860.84,83.05 -279,23.46 -560.94,44.36 -848.37,65.66 -58.1,144.67 -135.22,329.3 -225.75,556.22 -90.7,224.14 -182.95,464.93 -282.39,720.02 -96.91,252.15 -189.16,492.92 -276.74,722.37 -155,396.82 -288.99,742.54 -404.55,1040.1 -115.58,297.56 -203.37,524.28 -266.33,677.55 -57.64,150.18 -144.73,274.97 -263.76,377.37 -116.27,102.2 -233.29,157.66 -348.23,166.18zm3855.49 -1604.21c-106.75,7.91 -237.63,-12.66 -389.89,-61.9 -152.09,-46.52 -288.06,-135.55 -410.63,-266.81 -122.59,-131.31 -190.92,-310.64 -208.16,-543.3 -14.42,-194.36 11.32,-441.23 77.18,-740.62 65.89,-299.4 184.01,-599.89 351.96,-895.81 167.57,-301.44 390.61,-560.19 669.28,-773.53 278.69,-213.31 613.76,-334.49 999.72,-363.11 139.6,-10.35 261.28,-2.84 365.18,25.24 106.65,27.89 196.89,56.98 273.85,92.57 42.87,21.58 83.23,46.12 120.84,70.84 37.4,22.01 75.24,49.47 107.6,77.34l161.09 -91.77c44.9,-25.33 90.01,-47.94 140.82,-68.22 50.58,-23.02 96.5,-34.67 134.8,-37.52 117.73,-8.72 218.72,16.81 297.47,77.02 81.53,60.03 125.1,128.33 131,207.74 1.81,24.62 0.52,43.99 -1.62,52.4 -15.19,91.98 -47.31,215.46 -93.43,372.99 -46.13,157.58 -93.57,334.48 -148,528.43 -52.11,188.29 -93.84,367.51 -127.82,540.69 -33.96,173.18 -45.5,314.39 -37.38,423.9 7.1,95.78 29.23,171.22 63.99,231.96 37.31,57.78 94.3,83.82 168.19,78.35 90.32,-6.71 209.67,-67.84 355.03,-185.95 148.12,-118.34 297.76,-253.28 448.5,-410.34 84.44,-86.08 168.69,-174.9 255.06,-272.12 89.12,-97.43 178.02,-197.61 266.3,-305.99 48.98,-44.92 96.64,-70.48 143.18,-73.93 62.95,-4.66 117.18,21.61 162.93,81.51 48.45,59.71 75.42,126.53 80.91,200.45 6.48,87.59 -18.14,163.73 -73.89,228.41 -117.19,127.05 -236.72,259.77 -361.09,401.1 -121.66,141.12 -290.35,316.03 -508.84,524.88 -195.45,185.15 -398.22,346.07 -610.79,485.67 -210.06,136.69 -402.69,211.5 -577.86,224.5 -221.72,16.43 -386.79,-56.64 -500.84,-221.59 -114.07,-164.95 -176.74,-341.96 -191.15,-536.31 -10.54,-142.34 -0.72,-269.67 32.2,-382.2 -115.85,181.98 -253.21,371.06 -417.55,567.66 -161.58,196.39 -338.9,366.41 -535.08,504.8 -196.14,138.4 -399.53,216.79 -613.05,232.61zm313.54 -857.21c101.27,-7.5 225.28,-80.01 366.3,-219.81 143.72,-140 280.18,-304.28 407.02,-487.07 142.02,-200.42 255.36,-379.49 334.31,-539.47 78.79,-162.73 117.6,-270.19 113.55,-324.94 -8.75,-117.7 -84.27,-208.45 -229.14,-269.25 -142.16,-61.03 -267.98,-87.48 -380.19,-79.16 -194.35,14.41 -375.82,91.15 -541.69,230.05 -163.11,138.71 -293.48,310.76 -388.37,515.96 -94.87,205.23 -134.58,411.84 -118.97,622.62 9.13,123.17 40.35,247.48 96.85,378.15 56.28,127.95 167.88,185.73 340.35,172.93zm4008.69 536.79c-257.29,19.07 -439.9,-30.71 -545.26,-152.24 -105.32,-121.55 -163.62,-276.86 -177.44,-463.01 -11.36,-153.27 -1.22,-313.67 33.33,-478.65 34.58,-164.92 75.42,-319.34 128.42,-458.14 94.18,-251.95 188.35,-503.87 282.72,-753.1 94.18,-251.92 181.76,-481.35 259.8,-690.82l1203.45 -3147.1c62.33,-161.52 161.56,-270.71 303.23,-327.99 141.62,-57.31 273.2,-64.3 397.69,-18.49 127.24,45.63 194.79,139.71 205.54,284.79 4.26,57.49 -4.95,118.72 -27.68,183.71 -19.94,64.79 -50.69,133.1 -86.26,210.06 -96.39,221.84 -220.58,514.53 -369.98,875.16 -146.69,360.43 -309.08,768.81 -487.41,1222.4 -194.42,496.09 -358.73,915.64 -490.6,1252.93 -131.89,337.32 -254.23,654.65 -367.08,952 -30.1,76.56 -56.63,163.85 -82.38,262.09 -25.75,98.25 -35.9,184.33 -30.42,258.22 7.71,104.01 58.1,152.57 148.44,145.88 101.3,-7.51 232.37,-58.51 393.25,-153.01 163.43,-97.44 330.89,-214.46 502.25,-353.75 176.99,-137 348.33,-276.31 510.83,-423.22 162.51,-146.91 314.28,-290.28 452.74,-427.14 46.24,-44.73 105.05,-68.34 173.47,-73.42 145.09,-10.76 222.13,63.35 234.12,224.85 4.86,65.69 -11.55,141.24 -49.26,226.6 -37.72,85.35 -108.48,170.42 -212.08,257.94 -188.95,198.4 -378.54,388.62 -568.72,570.6 -190.39,179.25 -381.99,342.1 -577.76,485.98 -190.5,140.73 -385.54,257.02 -579.7,348.46 -194.13,91.48 -388.37,144.4 -577.26,158.41zm2449.91 -181.62c-249.08,18.47 -426,-28.96 -533.69,-144.83 -104.93,-116.08 -165.35,-263 -178.56,-440.9 -11.76,-158.76 3.43,-325.04 42.87,-498.61 39.42,-173.56 88.26,-331.34 146.75,-470.53l466.39 -1171.29 -202.56 15.02c-175.17,12.98 -297.65,-5.46 -370.35,-57.89 -69.94,-52.6 -107.46,-113.13 -112.95,-187.04 -5.26,-71.16 29.69,-156.32 104.91,-255.47 75.23,-99.15 184.02,-154.02 323.62,-164.37l509.13 -37.74 849.88 -2050.23c54.23,-122.34 124.6,-212.91 213.8,-271.81 89.22,-58.92 182.99,-93.39 284.28,-100.89 95.8,-7.11 182.5,11.22 265.73,57.34 83.04,43.41 127.44,122.69 136.18,240.4 4.46,60.21 -4.76,121.44 -27.47,186.44 -22.9,62.25 -53.21,136.06 -91.11,218.69 -42.2,99.44 -101.31,230.44 -174.36,395.52 -73.11,165.04 -162.92,364.35 -272.4,595.42l-292.15 662.96 1535.65 -113.82c150.56,-11.16 275.16,-1.14 374.01,32.81 98.66,31.24 154.42,115.17 164.35,249.28 5.09,68.45 -14.48,138.71 -61.61,208.26 -44.42,69.36 -148.32,115.6 -314.28,141.66l-1962.65 145.5 -279.59 684.05 -248.45 621.16c-32.66,79.52 -64.46,169.95 -92.75,271.12 -28.3,101.19 -38.21,190.01 -32.72,263.92 7.1,95.79 54.33,139.06 141.91,132.59 101.3,-7.51 232.39,-58.52 395.79,-155.94 163.45,-97.45 333.66,-214.66 513.39,-351.82 182.47,-137.41 356.56,-276.92 521.78,-424.03 168,-147.34 319.77,-290.7 458.25,-427.55 52.11,-39.67 97.43,-59.53 138.48,-62.58 68.43,-5.07 123.29,29.38 164.56,103.38 41.05,71.27 50.69,164.15 31.24,272.94 -19.47,108.78 -85.85,215.56 -201.75,323.21 -191.69,198.64 -384,389.04 -582.39,571.63 -195.85,179.66 -390.21,342.7 -585.98,486.59 -195.97,141.12 -393.75,257.62 -590.62,349.29 -194.15,91.46 -385.66,144.17 -574.54,158.18zm2849.56 -211.25c-106.75,7.93 -237.63,-12.64 -389.89,-61.9 -152.11,-46.52 -288.06,-135.53 -410.63,-266.81 -122.59,-131.31 -190.92,-310.62 -208.16,-543.31 -14.42,-194.35 11.32,-441.22 77.18,-740.61 65.89,-299.4 183.99,-599.89 351.96,-895.82 167.57,-301.44 390.61,-560.18 669.28,-773.5 278.69,-213.34 613.74,-334.51 999.72,-363.11 139.6,-10.35 261.28,-2.87 365.18,25.21 106.65,27.9 196.89,56.97 273.85,92.56 42.87,21.59 83.23,46.13 120.84,70.85 37.4,22.01 75.24,49.49 107.6,77.37l161.07 -91.78c44.92,-25.32 90.03,-47.95 140.84,-68.23 50.58,-23.02 96.5,-34.68 134.8,-37.5 117.73,-8.75 218.7,16.78 297.47,77.02 81.53,60 125.1,128.33 131,207.71 1.81,24.63 0.52,44.03 -1.62,52.43 -15.19,91.95 -47.31,215.44 -93.43,372.99 -46.13,157.56 -93.57,334.46 -148,528.41 -52.11,188.28 -93.84,367.53 -127.82,540.69 -33.95,173.17 -45.5,314.38 -37.38,423.89 7.1,95.79 29.23,171.25 63.99,231.96 37.31,57.78 94.28,83.84 168.19,78.36 90.32,-6.71 209.67,-67.84 355.03,-185.96 148.12,-118.33 297.76,-253.27 448.5,-410.31 84.44,-86.08 168.69,-174.9 255.07,-272.15 89.09,-97.42 178.01,-197.57 266.3,-305.98 48.97,-44.92 96.61,-70.46 143.16,-73.91 62.95,-4.66 117.18,21.58 162.93,81.49 48.46,59.73 75.42,126.53 80.91,200.45 6.48,87.58 -18.16,163.74 -73.89,228.42 -117.19,127.06 -236.71,259.76 -361.09,401.11 -121.66,141.1 -290.35,316 -508.84,524.86 -195.45,185.17 -398.22,346.06 -610.79,485.67 -210.06,136.69 -402.69,211.51 -577.86,224.49 -221.72,16.46 -386.79,-56.63 -500.84,-221.58 -114.07,-164.95 -176.74,-341.96 -191.15,-536.31 -10.56,-142.31 -0.72,-269.66 32.2,-382.21 -115.85,182.01 -253.21,371.07 -417.54,567.67 -161.59,196.39 -338.91,366.43 -535.09,504.82 -196.16,138.4 -399.53,216.77 -613.05,232.59zm313.54 -857.18c101.27,-7.5 225.28,-80.01 366.3,-219.84 143.72,-140 280.19,-304.26 407.02,-487.07 142.02,-200.42 255.36,-379.48 334.31,-539.45 78.79,-162.73 117.6,-270.19 113.55,-324.97 -8.75,-117.69 -84.27,-208.44 -229.14,-269.26 -142.16,-61 -267.98,-87.45 -380.19,-79.13 -194.35,14.41 -375.82,91.15 -541.69,230.05 -163.1,138.71 -293.48,310.76 -388.37,515.96 -94.87,205.2 -134.6,411.81 -118.97,622.6 9.13,123.17 40.35,247.49 96.85,378.15 56.28,127.95 167.88,185.73 340.35,172.95zm4282.43 516.48c-218.99,16.23 -419.21,-48.72 -597.97,-195.12 -178.75,-146.39 -278.11,-372.97 -300.63,-676.8 -18.47,-249.11 -2.98,-522.74 43.75,-820.73 46.71,-297.94 102.87,-580.1 168.45,-846.45 65.55,-266.34 119.18,-471.25 155.18,-617.02 53.21,-136.06 122.75,-237.56 214.3,-302.13 91.55,-64.59 185.12,-101.81 275.46,-108.51 82.12,-6.08 163.54,15.41 246.96,64.28 83.24,46.12 126.64,111.7 132.52,191.1 2.85,38.33 -0.38,68.83 -12.46,91.76 -47.75,209.95 -105.2,437.16 -174.95,684.55 -66.99,247.18 -125.97,490.99 -174.26,731.29 -48.22,240.28 -65.26,456.22 -51.05,647.84 3.45,46.55 19.28,111.41 47.07,189.18 27.79,77.75 60.93,116.58 96.52,113.96 82.12,-6.09 169.01,-59.32 263.59,-157.18 94.58,-97.84 194.73,-231.89 303.2,-402.29 139,-167.19 263.59,-380.1 379.44,-636.43 115.67,-259.03 224.14,-503.79 324.99,-739.69 95.81,-230.03 193.82,-429.99 291.56,-596.87 97.71,-166.91 201.32,-254.38 313.53,-262.69 128.69,-9.56 222.03,24.81 280.35,105.82 60.85,78.06 95.52,174.57 104.26,292.27 13.18,177.93 -15.5,347.95 -85.66,515.54 -70.35,164.84 -162,339.54 -271.97,526.6 -110.22,184.32 -224.05,393.69 -338.8,627.87 56.89,61.86 138.69,88.82 242.72,81.11 235.41,-17.45 469.51,-89.86 702.07,-219.95 235.3,-130.29 454.69,-289.67 663.61,-478.56 44.3,-33.55 87.1,-50.51 128.15,-53.54 57.49,-4.28 105.86,16.9 145.3,66.28 39.22,46.66 63.04,108.2 68.94,187.58 6.3,84.85 -11.45,179.74 -56.14,282.14 -41.95,102.18 -117.39,198.61 -229.01,289.45 -222.23,195.38 -447.07,355.18 -677.73,474.12 -227.89,118.74 -484.07,190.03 -768.79,211.14 -95.79,7.08 -187.33,-2.65 -280.31,-31.54 -90.23,-29.07 -209.66,-80.8 -355.78,-158.03 -187.73,289.14 -380.33,512.6 -580.56,670.59 -197.7,155.02 -408.66,242.2 -635.87,259.05zm3815.82 -282.88c-106.75,7.91 -237.64,-12.66 -389.9,-61.9 -152.08,-46.52 -288.05,-135.55 -410.62,-266.81 -122.59,-131.31 -190.93,-310.64 -208.17,-543.3 -14.41,-194.36 11.32,-441.23 77.19,-740.62 65.89,-299.4 184,-599.89 351.95,-895.82 167.57,-301.43 390.62,-560.18 669.28,-773.52 278.69,-213.31 613.75,-334.49 999.73,-363.11 139.6,-10.35 261.27,-2.84 365.18,25.24 106.65,27.88 196.88,56.97 273.84,92.56 42.87,21.59 83.24,46.13 120.85,70.85 37.4,22.01 75.23,49.47 107.6,77.34l161.09 -91.78c44.9,-25.32 90.01,-47.93 140.81,-68.21 50.59,-23.02 96.51,-34.68 134.81,-37.52 117.72,-8.72 218.69,16.81 297.47,77.02 81.53,60.03 125.1,128.33 131,207.74 1.81,24.62 0.51,43.99 -1.62,52.4 -15.19,91.98 -47.31,215.46 -93.44,372.99 -46.12,157.58 -93.56,334.48 -148,528.43 -52.11,188.28 -93.83,367.51 -127.82,540.69 -33.95,173.18 -45.5,314.39 -37.38,423.9 7.11,95.78 29.23,171.22 63.99,231.96 37.32,57.78 94.29,83.81 168.2,78.35 90.32,-6.71 209.66,-67.84 355.02,-185.96 148.12,-118.33 297.76,-253.27 448.51,-410.33 84.44,-86.08 168.69,-174.9 255.06,-272.12 89.11,-97.43 178.02,-197.61 266.3,-305.99 48.97,-44.92 96.64,-70.48 143.16,-73.93 62.96,-4.66 117.19,21.58 162.94,81.51 48.45,59.71 75.42,126.53 80.9,200.45 6.48,87.58 -18.13,163.72 -73.88,228.4 -117.19,127.06 -236.72,259.78 -361.1,401.11 -121.65,141.12 -290.34,316.03 -508.84,524.88 -195.45,185.15 -398.21,346.06 -610.79,485.67 -210.06,136.69 -402.69,211.49 -577.86,224.5 -221.72,16.43 -386.79,-56.64 -500.84,-221.59 -114.07,-164.95 -176.73,-341.96 -191.15,-536.31 -10.53,-142.34 -0.72,-269.69 32.21,-382.21 -115.85,181.99 -253.21,371.07 -417.55,567.67 -161.59,196.39 -338.9,366.41 -535.08,504.8 -196.14,138.4 -399.53,216.79 -613.05,232.61zm313.53 -857.21c101.28,-7.5 225.29,-80.01 366.3,-219.81 143.73,-140 280.19,-304.28 407.03,-487.07 142.02,-200.42 255.35,-379.5 334.31,-539.47 78.77,-162.73 117.6,-270.19 113.53,-324.94 -8.74,-117.7 -84.27,-208.46 -229.13,-269.25 -142.16,-61.03 -267.98,-87.48 -380.19,-79.16 -194.35,14.41 -375.82,91.15 -541.69,230.05 -163.11,138.71 -293.48,310.76 -388.37,515.96 -94.87,205.22 -134.6,411.84 -118.97,622.62 9.12,123.17 40.35,247.48 96.84,378.15 56.28,127.95 167.89,185.73 340.35,172.93z"/>
   <path class="fil0" d="M9284.4 13240.89c-91.39,6.77 -203.45,-10.85 -333.8,-53.03 -130.19,-39.8 -246.59,-116.02 -351.51,-228.4 -104.95,-112.39 -163.47,-265.89 -178.21,-465.08 -12.35,-166.39 9.7,-377.71 66.09,-634.03 56.41,-256.27 157.49,-513.52 301.28,-766.86 143.45,-258.05 334.38,-479.54 572.95,-662.15 238.57,-182.61 525.4,-286.36 855.82,-310.85 119.5,-8.86 223.65,-2.45 312.6,21.58 91.3,23.87 168.56,48.77 234.43,79.25 36.73,18.47 71.27,39.47 103.47,60.65 32.02,18.84 64.41,42.36 92.09,66.2l137.9 -78.54c38.46,-21.71 77.05,-41.08 120.55,-58.42 43.3,-19.7 82.63,-29.68 115.42,-32.12 100.77,-7.46 187.2,14.38 254.64,65.93 69.8,51.36 107.11,109.86 112.16,177.83 1.54,21.07 0.45,37.65 -1.39,44.87 -13.01,78.73 -40.52,184.42 -79.99,319.3 -39.5,134.87 -80.1,286.33 -126.7,452.36 -44.6,161.17 -80.35,314.62 -109.41,462.88 -29.07,148.22 -38.96,269.12 -32.01,362.84 6.1,82 25.02,146.6 54.78,198.59 31.93,49.46 80.72,71.74 143.99,67.05 77.31,-5.74 179.47,-58.07 303.93,-159.19 126.78,-101.28 254.89,-216.81 383.93,-351.24 72.3,-73.72 144.4,-149.74 218.33,-232.98 76.29,-83.41 152.4,-169.14 227.99,-261.94 41.91,-38.44 82.7,-60.31 122.53,-63.27 53.92,-3.99 100.33,18.47 139.46,69.79 41.51,51.1 64.61,108.3 69.29,171.56 5.57,74.99 -15.55,140.17 -63.26,195.52 -100.32,108.79 -202.65,222.4 -309.13,343.37 -104.15,120.82 -248.54,270.53 -435.57,449.35 -167.31,158.48 -340.88,296.24 -522.87,415.74 -179.83,117.01 -344.74,181.06 -494.71,192.19 -189.78,14.07 -331.09,-48.5 -428.74,-189.7 -97.65,-141.2 -151.3,-292.74 -163.63,-459.1 -9.03,-121.86 -0.62,-230.86 27.59,-327.19 -99.19,155.79 -216.79,317.67 -357.47,485.93 -138.32,168.13 -290.11,313.7 -458.05,432.17 -167.93,118.47 -342.02,185.56 -524.8,199.13zm268.41 -733.8c86.68,-6.44 192.81,-68.51 313.53,-188.22 123.07,-119.84 239.88,-260.47 348.44,-416.95 121.59,-171.58 218.6,-324.85 286.22,-461.83 67.42,-139.29 100.65,-231.3 97.18,-278.15 -7.46,-100.77 -72.12,-178.44 -196.14,-230.49 -121.7,-52.24 -229.41,-74.9 -325.46,-67.77 -166.39,12.32 -321.72,78.04 -463.73,196.95 -139.65,118.74 -251.26,266.01 -332.46,441.67 -81.22,175.69 -115.23,352.57 -101.85,533.02 7.81,105.44 34.55,211.81 82.9,323.71 48.16,109.5 143.72,158.99 291.38,148.06zm4384.24 1517.5c-65.62,4.86 -125.41,-7.2 -177.05,-36.36 -53.81,-26.65 -83.39,-76.29 -88.61,-146.6 -4.68,-63.27 18.82,-159.24 72.53,-292.83l1200.82 -3126.15 -215.58 15.98c-147.62,10.95 -250.14,-5.03 -307.34,-45.54 -57.37,-42.85 -87.16,-94.85 -91.66,-155.79 -4.71,-63.27 23.42,-128.96 86.87,-194.92 63.43,-65.98 157.26,-103.55 286.13,-113.11l478.06 -35.43c217.02,-536.82 440.73,-951.6 675.49,-1249.38 234.74,-297.79 468.88,-508.37 702.26,-634.05 233.37,-125.66 456.68,-196.43 669.92,-212.24 152.32,-11.3 290.39,39.73 414.06,150.74 123.71,110.99 195.47,284.72 213.38,526.09 8.34,112.49 1.31,240.23 -20.9,385.61 -11.01,73.85 -49.2,130.88 -114.91,166.39 -65.69,35.5 -120.86,53.74 -165.39,57.03 -53.9,3.99 -103.99,-4.1 -152.76,-26.38 -46.41,-22.48 -72.82,-60.61 -76.83,-114.48 -1.91,-25.77 -1.99,-58.76 2.24,-96.78 0.96,-18.91 -1.3,-49.37 -4.23,-89.22 -15.46,-208.56 -100.63,-308.27 -252.92,-296.97 -107.8,8 -234.52,78.64 -382.48,212.15 -147.96,133.48 -288.48,304.1 -423.85,512.06 -135.39,207.96 -241.78,425.56 -316.82,652.6l939.66 -69.65c175.74,-13.02 319.39,-14.25 433.25,-3.86 116.23,10.25 177.5,74.03 186.02,188.85 5.02,67.94 -16.41,128.44 -64.14,183.84 -45.39,55.18 -136.85,92.58 -271.9,114.38 -250.05,27.97 -495.73,50.88 -736.92,71.12 -238.84,20.08 -480.19,37.96 -726.25,56.2 -49.74,123.86 -115.78,281.9 -193.25,476.14 -77.69,191.89 -156.62,398.03 -241.75,616.39 -82.97,215.85 -161.93,421.99 -236.92,618.38 -132.68,339.69 -247.4,635.66 -346.34,890.39 -98.9,254.76 -174.05,448.8 -227.95,580.04 -49.37,128.56 -123.93,235.39 -225.79,323.05 -99.55,87.49 -199.71,134.99 -298.12,142.27zm3300.53 -1373.31c-91.39,6.77 -203.45,-10.82 -333.8,-53 -130.19,-39.83 -246.59,-116.02 -351.51,-228.42 -104.95,-112.37 -163.45,-265.89 -178.21,-465.09 -12.35,-166.36 9.7,-377.71 66.09,-634 56.41,-256.28 157.51,-513.52 301.28,-766.89 143.45,-258.03 334.38,-479.52 572.95,-662.14 238.57,-182.63 525.42,-286.37 855.82,-310.87 119.52,-8.85 223.65,-2.44 312.62,21.61 91.3,23.87 168.54,48.77 234.43,79.22 36.71,18.47 71.27,39.5 103.45,60.65 32.02,18.85 64.41,42.36 92.09,66.22l137.9 -78.55c38.46,-21.7 77.08,-41.06 120.55,-58.43 43.3,-19.7 82.63,-29.67 115.42,-32.1 100.79,-7.48 187.2,14.4 254.67,65.94 69.77,51.36 107.08,109.86 112.13,177.83 1.56,21.07 0.45,37.65 -1.37,44.86 -13.03,78.71 -40.54,184.43 -80.01,319.29 -39.5,134.87 -80.1,286.35 -126.7,452.38 -44.6,161.14 -80.35,314.59 -109.41,462.84 -29.07,148.23 -38.96,269.13 -31.98,362.87 6.07,82.01 24.99,146.57 54.75,198.57 31.93,49.47 80.72,71.77 143.99,67.08 77.34,-5.74 179.47,-58.09 303.93,-159.2 126.78,-101.3 254.89,-216.83 383.93,-351.26 72.3,-73.69 144.4,-149.7 218.33,-232.95 76.31,-83.42 152.4,-169.17 227.99,-261.96 41.93,-38.44 82.7,-60.32 122.53,-63.25 53.92,-4.01 100.35,18.47 139.49,69.77 41.49,51.09 64.59,108.29 69.27,171.56 5.57,74.99 -15.52,140.18 -63.26,195.54 -100.32,108.76 -202.65,222.39 -309.13,343.37 -104.15,120.82 -248.54,270.52 -435.57,449.33 -167.31,158.49 -340.88,296.24 -522.87,415.76 -179.83,116.99 -344.74,181.04 -494.69,192.15 -189.8,14.07 -331.11,-48.47 -428.76,-189.69 -97.65,-141.2 -151.3,-292.72 -163.63,-459.1 -9.03,-121.86 -0.62,-230.87 27.59,-327.19 -99.19,155.79 -216.79,317.66 -357.47,485.96 -138.32,168.13 -290.09,313.67 -458.05,432.14 -167.93,118.5 -342.02,185.57 -524.8,199.13zm268.41 -733.8c86.68,-6.43 192.81,-68.48 313.53,-188.18 123.07,-119.87 239.88,-260.47 348.44,-416.97 121.59,-171.58 218.62,-324.83 286.22,-461.82 67.42,-139.31 100.65,-231.29 97.18,-278.17 -7.46,-100.74 -72.12,-178.44 -196.14,-230.48 -121.7,-52.24 -229.41,-74.88 -325.46,-67.75 -166.39,12.32 -321.72,78.01 -463.73,196.93 -139.65,118.74 -251.24,266.03 -332.46,441.68 -81.22,175.67 -115.23,352.56 -101.85,533 7.81,105.45 34.55,211.83 82.9,323.72 48.16,109.52 143.72,158.99 291.38,148.05zm3396.52 462.11c-213.24,15.8 -364.68,-24.79 -456.86,-123.98 -89.84,-99.37 -141.57,-225.12 -152.87,-377.46 -10.06,-135.9 2.95,-278.21 36.71,-426.83 33.75,-148.56 75.57,-283.62 125.64,-402.81l399.26 -1002.68 -173.4 12.84c-149.98,11.14 -254.84,-4.65 -317.06,-49.53 -59.89,-45.04 -92.01,-96.84 -96.69,-160.11 -4.52,-60.94 25.42,-133.86 89.81,-218.72 64.39,-84.89 157.53,-131.85 277.03,-140.7l435.86 -32.31 727.53 -1755.11c46.43,-104.76 106.65,-182.26 183.03,-232.68 76.36,-50.45 156.64,-79.97 243.32,-86.4 82.03,-6.07 156.23,9.64 227.5,49.12 71.06,37.14 109.1,105.01 116.56,205.76 3.83,51.55 -4.05,104 -23.5,159.6 -19.61,53.31 -45.57,116.49 -78.02,187.22 -36.11,85.15 -86.69,197.29 -149.26,338.57 -62.56,141.31 -139.44,311.93 -233.17,509.74l-250.1 567.53 1314.61 -97.45c128.86,-9.57 235.55,-0.96 320.18,28.09 84.42,26.74 132.16,98.59 140.68,213.41 4.34,58.61 -12.4,118.74 -52.74,178.28 -38,59.35 -126.96,98.95 -269.05,121.26l-1680.16 124.56 -239.31 585.59 -212.72 531.76c-27.94,68.05 -55.18,145.46 -79.38,232.08 -24.21,86.62 -32.7,162.64 -28.01,225.91 6.07,82.01 46.5,119.08 121.49,113.51 86.7,-6.4 198.92,-50.09 338.81,-133.51 139.9,-83.4 285.61,-183.73 439.49,-301.17 156.21,-117.62 305.23,-237.05 446.67,-363 143.82,-126.11 273.74,-248.81 392.28,-366.01 44.6,-33.93 83.42,-50.94 118.55,-53.54 58.59,-4.35 105.57,25.16 140.88,88.51 35.14,61 43.39,140.51 26.74,233.64 -16.68,93.12 -73.49,184.52 -172.68,276.69 -164.15,170.04 -328.76,333.04 -498.6,489.33 -167.66,153.82 -334.02,293.38 -501.62,416.55 -167.76,120.82 -337.07,220.55 -505.64,299.01 -166.2,78.29 -330.12,123.42 -491.82,135.41zm3000.37 -3546.99c-166.39,12.32 -285.46,-4.76 -357.23,-51.28 -71.97,-48.85 -114.48,-114.05 -127.95,-200.23 -9.39,-126.51 28.29,-254.19 110.65,-382.82 84.52,-131.15 218.27,-202.33 401.01,-215.89 157.01,-11.64 267.07,10.84 332.52,67.25 67.8,56.23 103.81,128.96 110.58,220.35 7.64,103.1 -23.87,218.54 -94.33,348.64 -68.11,129.92 -194.83,200.59 -375.26,213.97zm-743.76 3379.71c-217.93,16.16 -393.17,-27.41 -527.86,-128.17 -132.52,-103.25 -208.65,-272 -226.21,-508.66 -12.32,-166.36 5.97,-332.66 54.92,-498.86 48.95,-166.18 105.42,-325.89 167.46,-474.23 64.39,-148.5 113.59,-279.39 147.81,-390.3 11.45,-36.17 30.85,-91.82 58.29,-166.9 29.79,-75.24 59.35,-152.83 91.3,-230.59l117.42 -291.45c38.77,-80.64 88.66,-138.54 144.98,-173.35 56.16,-37.11 115.87,-58.05 176.81,-62.55 103.1,-7.65 194.58,18.55 272.1,78.77 77.5,60.21 121.22,141.8 128.87,244.9 -0.61,23.62 -1.19,47.22 -3.97,73.32 -0.6,23.63 -8.25,47.74 -20.4,74.59 -50.61,112.13 -94.66,216.73 -132.25,313.74 -35.38,94.52 -72.97,191.53 -110.53,288.58 -34.14,80.3 -73.87,179.85 -121.59,298.84 -47.91,116.62 -88.78,232.77 -124.79,350.87 -33.66,117.98 -47.29,220.28 -40.7,309.33 5.38,72.64 27.61,118.14 64.5,138.98 39.22,20.64 91.66,28.53 159.59,23.48 105.47,-7.82 222.53,-49.49 348.75,-127.16 126.18,-77.7 244.11,-171.25 353.99,-278.35 116.72,-109.98 224.07,-219.26 321.88,-330.18 97.63,-113.27 168.69,-203.36 215.56,-270.44 45.38,-55.2 97.38,-84.98 155.96,-89.3 49.2,-3.66 88.26,14.63 122.03,56.9 33.59,39.94 54.16,94.96 59.21,162.92 4.51,60.91 -7.04,127.74 -32.29,200.31 -25.24,72.57 -69.59,141.83 -135.37,207.96 -164.7,193.64 -336.98,380.77 -519.5,556.86 -182.5,176.11 -369.44,324.28 -565.67,442.48 -196.39,115.89 -396.43,182.54 -600.3,197.67zm2120.69 -157.22c-91.4,6.77 -203.45,-10.82 -333.8,-53.02 -130.19,-39.81 -246.57,-116.01 -351.51,-228.41 -104.93,-112.36 -163.45,-265.89 -178.23,-465.08 -12.32,-166.36 9.71,-377.71 66.12,-634 56.39,-256.31 157.49,-513.52 301.28,-766.89 143.43,-258.03 334.38,-479.53 572.93,-662.16 238.57,-182.61 525.42,-286.35 855.84,-310.85 119.5,-8.85 223.65,-2.45 312.6,21.61 91.3,23.85 168.54,48.76 234.43,79.22 36.71,18.47 71.26,39.5 103.47,60.65 32.02,18.85 64.39,42.36 92.07,66.22l137.9 -78.55c38.45,-21.7 77.06,-41.06 120.55,-58.43 43.3,-19.7 82.63,-29.67 115.42,-32.1 100.79,-7.48 187.22,14.4 254.66,65.93 69.79,51.37 107.09,109.87 112.13,177.82 1.58,21.09 0.46,37.67 -1.37,44.86 -13.02,78.73 -40.54,184.45 -80.01,319.3 -39.47,134.87 -80.1,286.36 -126.69,452.37 -44.61,161.16 -80.35,314.61 -109.4,462.87 -29.09,148.23 -38.95,269.12 -32,362.87 6.07,82.01 25,146.57 54.77,198.57 31.94,49.47 80.71,71.77 143.97,67.08 77.34,-5.74 179.5,-58.1 303.93,-159.2 126.81,-101.3 254.9,-216.83 383.97,-351.26 72.28,-73.69 144.37,-149.7 218.33,-232.97 76.29,-83.4 152.38,-169.15 227.97,-261.95 41.93,-38.43 82.72,-60.31 122.54,-63.26 53.9,-3.99 100.34,18.49 139.48,69.79 41.51,51.09 64.59,108.29 69.27,171.56 5.55,74.98 -15.52,140.18 -63.24,195.54 -100.34,108.76 -202.65,222.36 -309.13,343.34 -104.17,120.85 -248.54,270.53 -435.58,449.36 -167.32,158.47 -340.9,296.24 -522.88,415.76 -179.83,116.99 -344.74,181.03 -494.69,192.15 -189.81,14.07 -331.11,-48.5 -428.74,-189.7 -97.67,-141.19 -151.3,-292.71 -163.65,-459.1 -9.03,-121.85 -0.6,-230.86 27.59,-327.18 -99.19,155.78 -216.77,317.66 -357.45,485.96 -138.35,168.11 -290.12,313.67 -458.07,432.14 -167.91,118.49 -342,185.57 -524.8,199.13zm268.4 -733.8c86.71,-6.44 192.84,-68.51 313.57,-188.2 123.04,-119.86 239.88,-260.48 348.44,-416.96 121.58,-171.58 218.6,-324.86 286.19,-461.82 67.42,-139.31 100.67,-231.31 97.2,-278.17 -7.48,-100.75 -72.14,-178.44 -196.18,-230.48 -121.69,-52.24 -229.4,-74.88 -325.46,-67.78 -166.38,12.35 -321.72,78.04 -463.72,196.95 -139.63,118.74 -251.24,266.01 -332.46,441.69 -81.22,175.67 -115.24,352.56 -101.87,533 7.82,105.45 34.56,211.83 82.91,323.71 48.16,109.51 143.72,158.99 291.37,148.06zm6060.05 2573.74c-157,11.63 -294.02,-25.35 -411.12,-110.91 -116.92,-83.22 -182.37,-203.25 -193.65,-355.57 -5.55,-74.98 -5.4,-136.26 -1.83,-183.64 3.57,-47.38 20.28,-107.53 45.54,-180.1 27.62,-72.73 73.51,-184.52 135.39,-335.19l586 -1407.65c-80.97,83.75 -167.84,151.46 -255.91,202.76 -88.1,51.28 -184.76,82.01 -287.88,89.65 -260.11,19.28 -459.55,-64.88 -593.65,-252.84 -134.28,-190.34 -209.39,-408.61 -227.97,-659.33 -25.01,-337.45 25.42,-642.77 151.24,-916.02 125.64,-275.55 289.92,-506.84 492.47,-698.59 195.87,-186.52 395.06,-328.51 595.01,-428.16 202.31,-99.82 367.88,-154.5 496.78,-164.06 112.46,-8.33 209.93,3.27 294.73,34.68 84.79,31.44 158.2,68.4 215.42,108.92 67.11,46.89 125.5,103.8 170.54,171.16l116.04 -119.37c32.9,-33.05 68.47,-61.61 102.06,-85.31 33.42,-26.02 65.33,-40.17 91.13,-42.1 89.05,-6.58 161.25,13.97 214.46,64.21 53.05,47.91 83.67,111.61 89.41,188.93 4.71,63.27 -6.68,132.45 -36.8,203l-1464.27 3513.24 -74.82 198.75c-29.92,72.93 -43.79,139.91 -39.47,198.5 4.71,63.27 37.43,91.49 95.99,87.14 56.25,-4.17 120.4,-60.76 190.26,-167.26 69.83,-106.5 144.49,-243.97 223.54,-417.13 79.24,-170.79 159.92,-353.5 237.4,-547.73 69.36,-177.15 138.32,-358.97 206.64,-550.17 68.29,-191.19 133.1,-365.64 192.11,-523.18 59.01,-157.53 106.73,-276.51 145.69,-354.79 70.21,-101.82 166.37,-203.21 293.15,-304.49 126.83,-101.31 262.98,-203.27 406.34,-303.46 145.72,-100.33 279.9,-197.44 402.34,-293.7 36.28,-19.19 68.38,-30.98 94.18,-32.88 53.87,-4.01 95.63,18.81 127.76,70.62 34.45,51.64 53.36,116.21 59.1,193.53 7.31,98.42 -10.49,208.11 -51.19,326.6 -40.7,118.47 -111.95,206.23 -213.41,267.93l-543.7 389.02c-73.16,61.96 -148.48,190.07 -221.3,383.98 -72.82,193.88 -146.4,409.04 -220.93,643.1 -74.36,236.43 -148.12,449.25 -221.28,638.45 -97.6,240.5 -208,467.8 -335.66,684.63 -127.65,216.79 -277,395.17 -452.74,535.42 -175.57,142.61 -381.78,221.51 -623.15,239.42zm-253.68 -3008.9c185.13,-13.72 373.45,-143.14 569.66,-388.6 196.24,-245.45 415.84,-619.87 656.59,-1123.1 -19.72,-43.3 -53.65,-87.91 -104.17,-133.64 -37.94,-34.89 -84.9,-64.39 -143.39,-90.68 -58.47,-26.31 -129.81,-35.16 -216.54,-28.73 -208.54,15.46 -390.62,101.99 -548.57,259.8 -155.6,157.62 -275.96,345.61 -356.42,563.63 -80.43,218.02 -114.34,427.88 -99.6,627.06 8.88,119.51 33.87,202.47 77.52,251.07 43.49,46.26 96.95,68.22 164.91,63.19zm3125.07 486.96c-175.75,13.02 -335.89,-17.5 -480.21,-89.27 -144.53,-74.11 -226.45,-225.91 -243.66,-457.89 -1.39,-18.76 3.99,-73.33 13.78,-163.6 12.15,-90.43 36.62,-205.36 71.06,-344.56 43.57,-175.21 116.27,-402.11 215.63,-682.79 101.7,-280.87 248.27,-623.94 442.23,-1027.09 48.76,-104.93 109.01,-182.43 178.35,-232.34 71.68,-50.09 149.62,-79.42 236.3,-85.85 86.71,-6.44 165.6,8.94 241.38,45.75 75.59,34.42 117.59,92.58 123.33,169.9 1.91,25.76 -0.87,51.92 -5.98,78.22 -14.24,62.31 -58.68,162.19 -131.11,297.18 -72.48,134.94 -154.91,294.2 -242.66,477.42 -88.59,171.51 -164.61,353.86 -230.21,549.58 -63.45,193.21 -94.76,374.59 -91.8,541.67 3.66,49.21 21.03,92.69 49.74,130.61 31.08,37.73 76.98,53.18 140.25,48.49 175.78,-13.04 336.33,-72.05 486.2,-179.76 149.88,-107.71 288.64,-238.17 415.96,-396.04 127.32,-157.89 237.69,-321.59 333.33,-493.59 95.63,-172.04 173.55,-328.6 235.95,-472.23 59.09,-124.55 107.96,-260.12 149.26,-402.21 41.29,-142.07 93.37,-266.1 154.04,-369.57 62.82,-105.96 152.92,-162.12 272.42,-170.98 96.05,-7.12 175.65,17.6 236.57,76.69 60.78,56.77 94.27,127.33 100.69,214.01 5.22,70.33 -23.96,185.57 -89.8,345.97 -65.84,160.4 -137.72,335.37 -218.08,522.76 -86.85,194.91 -159.31,393.5 -219.89,593.55 -58.2,199.86 -82.86,376.07 -71.74,526.04 7.13,96.08 69.34,140.93 188.86,132.08 180.44,-13.38 408.01,-122.15 682.51,-328.62 127.13,-96.62 255.4,-209.79 382.63,-337.03 127.05,-129.59 237.18,-264.99 332.39,-411.06l80.46 545.39c-164.97,221.92 -366.33,430.06 -608.7,624.75 -242.39,194.67 -478.51,346.49 -711.11,450.93 -238.93,114.3 -445.92,150.85 -616.11,111.64 -170.19,-39.23 -265.67,-182.93 -284.28,-433.69 -9.36,-126.51 1.1,-271.02 33.64,-436.02 -81.13,145.05 -195.07,292.5 -336.96,444.39 -141.89,151.9 -315.98,282.61 -517.42,394.15 -201.62,109.16 -432.48,173.42 -697.25,193.06zm3976.61 -294.81c-215.61,15.98 -402.38,-24.37 -562.51,-118.51 -160.13,-94.15 -285.38,-226.25 -377.91,-393.74 -92.52,-167.52 -146.25,-352.01 -161.02,-551.22 -13.03,-175.73 21.75,-373.87 106.54,-596.93 84.63,-225.42 214.62,-442.39 389.66,-655.63 172.7,-213.07 385.32,-396.13 638.22,-544.47 252.71,-150.68 533.73,-237.51 843.06,-260.43 222.61,-16.49 395.32,24.9 513.45,124.52 118.14,99.62 185.48,245.43 199.55,435.24 8.34,112.49 -13.27,234.25 -62.64,362.78 -49.37,128.55 -143.26,260.4 -279.18,397.7 -135.73,139.66 -320.49,285.29 -554.29,436.94 -233.82,151.61 -528.53,307.78 -884.18,468.43 42.8,164.12 182.61,238.59 421.63,220.88 185.12,-13.73 383.87,-66.18 591.38,-159.32 209.87,-93.27 411.98,-195.47 603.71,-310.98 192.05,-110.85 353.97,-214.75 490.51,-312.04 136.51,-97.28 219.74,-150.61 244.65,-164.2 24.56,-18.33 44.96,-29.26 63.51,-33 20.93,-3.9 39.52,-7.64 55.92,-8.85 63.24,-4.71 109.7,17.77 139.13,65.08 29.4,47.29 46.6,88.43 49.01,121.25 1.75,23.42 1.48,51.7 -2.93,87.39 -2.27,33.14 -18.22,72.03 -50.07,119.16 -32.54,37.77 -130.08,120.4 -292.3,252.58 -159.86,132 -331.96,257.86 -518.29,382.41 -226.76,151.14 -480.5,287.74 -765.63,414.9 -282.74,127.01 -562.46,199.55 -838.95,220.06zm-286.58 -1354.77c168.96,-104.41 339.22,-223.06 510.62,-358.3 171.23,-137.57 302.9,-236.85 394.81,-300.23 120.44,-91.4 197.27,-167.78 232.39,-234 41.85,-71.43 61.11,-129.4 57.83,-173.93 -2.96,-39.83 -19.46,-71.58 -46.98,-93.12 -27.68,-23.88 -56.83,-35.84 -90.01,-38.11l-35.5 -2.06 -37.48 2.78c-147.62,10.94 -280.41,63.21 -400.72,156.93 -117.93,93.59 -215.58,206.84 -292.9,339.81 -81.48,140.35 -144.91,269.93 -192.62,388.92 -45.41,118.82 -80.1,222.7 -99.44,311.32z"/>
   <path class="fil1" d="M7340.95 21004.35c-416.44,-74.16 -800.35,-194.33 -1091.7,-627.21 205.96,77.16 337.27,132.43 472.54,175.28 132.12,41.76 268.28,70.77 443.56,116 -493.04,-693.09 -1573.54,-967.52 -2151.65,-585.24 959.13,1073.84 1799.64,1413.02 2327.24,921.17z"/>
   <path class="fil1" d="M4332.08 16601.1c-435.96,-775.92 -438.55,-782.73 -412.62,-1009.47 177.56,196.93 368.92,409.15 560.24,621.36 26.72,-15.82 53.46,-31.55 80.16,-47.37 11.79,-879.26 -685.8,-1297.66 -1214.73,-1839.89 -349.22,946.87 238.15,2280.6 986.95,2275.38z"/>
   <path class="fil1" d="M8361.89 20353.49c16.6,-570.35 -312.87,-1218.28 -896.04,-1779.56 -286.92,589.66 -388.98,1177.98 -36.51,1765.42 191.01,318.38 476.74,517.24 913.16,529.88 -320.35,-370.17 -546.64,-731.72 -532,-1191.81 182.47,223.76 359.73,441.11 551.39,676.07z"/>
   <path class="fil1" d="M5661.83 19124.66c-300.29,-668.56 -1228.57,-1052.1 -1943.16,-879.35 264.32,933.74 1355.23,1576.53 1979.92,1166.51 -599.79,-220.89 -784.64,-358.95 -845.83,-615.18 261.78,106.17 535.42,217.11 809.07,328.02z"/>
   <path class="fil1" d="M6275.69 17218.99c-388.03,548.94 -488.21,1290.16 -252.36,1800.2 127.21,274.99 331.36,449.87 661.76,523.57 -75.03,-217.6 -150.45,-391.85 -193.54,-573.71 -42.61,-179.94 -52.65,-367.63 -76.92,-551.93 17.3,-3.09 34.69,-6.16 52.11,-9.25 112.26,229.92 224.52,459.91 351.19,719.33 238.15,-502.77 -11.22,-1335.07 -542.23,-1908.2z"/>
   <path class="fil1" d="M5113.66 17928.71c104.37,102.24 265.51,146.5 400.7,217.35 12.01,-24.75 24.02,-49.42 36.13,-74.16 -192.27,-356.25 -319.73,-725.49 -235.28,-1186.35 112.26,223.83 201.06,401.09 315.29,628.94 189.29,-732.28 -67.66,-1499.66 -561.82,-1763.36 -96.62,342.43 -211.18,676.79 -282.66,1020.16 -90.52,434.29 3.57,839.9 327.64,1157.41z"/>
   <path class="fil1" d="M9979.54 21782.11c-443.93,-362.36 -687.21,-826.7 -621.05,-1126.82 157.2,167.69 331.04,353.19 504.82,538.57 23.81,-22.29 47.52,-44.57 71.31,-66.88 -162.39,-686.04 -615.98,-1129.6 -1225.63,-1470.58 -135.68,1114.4 295.85,2070.28 1270.54,2125.71z"/>
   <path class="fil1" d="M8631.05 22446.39c285.81,-33.29 569.66,-98.51 720.52,-437.86 -425.36,5.22 -831.04,86.1 -1271.58,-141.67 195.37,-5.62 319.97,-1.18 442.52,-14.94 127.61,-14.32 253.23,-46.25 413.74,-77 -437.07,-321.08 -1416.04,-333.58 -1886.3,-46.01 414.61,497.14 915.39,794.99 1581.1,717.49z"/>
   <path class="fil1" d="M4427.94 17823.86c-648.24,-376.8 -742.32,-468.13 -777.58,-741.44 224.71,125.55 458.17,256.01 691.72,386.54 -266.2,-792.14 -991.45,-865.59 -1604.5,-1140.11 77.63,985.54 1001.02,1789.38 1690.37,1495.02z"/>
   <path class="fil1" d="M1754.91 18267.23c586.49,823.77 1263.75,1564.5 2094.06,2151.24 201.31,142.15 427.83,248.56 642.73,371.43 32.25,-35.41 64.43,-70.75 96.68,-106.09 -2265.71,-1537.07 -3710.22,-3669.97 -4583.08,-6221.12 -13.74,101.44 1.03,183.91 24.43,263.92 374.55,1277.83 953.85,2457.38 1725.19,3540.63z"/>
   <path class="fil1" d="M976.69 19358.48c1506.69,1764.55 3367.62,2941 5659.83,3393.72 165.39,32.66 341.64,10.2 512.8,13.3 5.38,-42.63 10.76,-85.23 16.14,-127.87 -2440.86,-425.81 -4517.15,-1520.79 -6218.82,-3435.94 21.83,118.14 18.74,143.6 30.05,156.79z"/>
   <path class="fil1" d="M4551.81 14686.19c-470.11,-1404.72 -940.22,-2809.44 -1423.69,-4254.11 252.7,1511.16 616.06,2953.76 1423.69,4254.11z"/>
   <path class="fil1" d="M2345.21 15894.29c-532.09,-1326.36 -1064.2,-2652.83 -1620.66,-4039.85 345.28,1468.47 752.29,2843.6 1620.66,4039.85z"/>
   <path class="fil1" d="M7324.33 17516.44c-532.09,-1326.37 -1064.19,-2652.83 -1620.65,-4039.85 345.27,1468.46 752.29,2843.62 1620.65,4039.85z"/>
   <path class="fil1" d="M2637.35 13648.91c37.31,-10.84 74.63,-21.75 111.94,-32.58 -291.42,-952.79 -582.93,-1905.58 -874.43,-2858.39 129.11,999.61 346.84,1973.92 762.49,2890.97z"/>
   <path class="fil1" d="M8640.98 18338.21c37.31,-10.82 74.63,-21.74 111.95,-32.56 -291.43,-952.79 -582.93,-1905.6 -874.44,-2858.39 129.11,999.6 346.86,1973.91 762.49,2890.95z"/>
   <path class="fil1" d="M41635.77 21004.35c416.41,-74.16 800.35,-194.33 1091.71,-627.21 -205.97,77.16 -337.28,132.43 -472.56,175.28 -132.12,41.76 -268.27,70.77 -443.55,116 493.03,-693.09 1573.53,-967.52 2151.64,-585.24 -959.13,1073.84 -1799.66,1413.02 -2327.24,921.17z"/>
   <path class="fil1" d="M44644.65 16601.1c435.95,-775.92 438.55,-782.73 412.62,-1009.47 -177.57,196.93 -368.9,409.15 -560.25,621.36 -26.72,-15.82 -53.43,-31.55 -80.16,-47.37 -11.77,-879.26 685.8,-1297.66 1214.73,-1839.89 349.23,946.87 -238.15,2280.6 -986.94,2275.38z"/>
   <path class="fil1" d="M40614.83 20353.49c-16.58,-570.35 312.87,-1218.28 896.05,-1779.56 286.91,589.66 388.97,1177.98 36.53,1765.42 -191.05,318.38 -476.77,517.24 -913.19,529.88 320.35,-370.17 546.65,-731.72 532.01,-1191.81 -182.48,223.76 -359.74,441.11 -551.4,676.07z"/>
   <path class="fil1" d="M43314.89 19124.66c300.3,-668.56 1228.59,-1052.1 1943.17,-879.35 -264.33,933.74 -1355.25,1576.53 -1979.92,1166.51 599.78,-220.89 784.63,-358.95 845.82,-615.18 -261.77,106.17 -535.42,217.11 -809.07,328.02z"/>
   <path class="fil1" d="M42701.03 17218.99c388.04,548.94 488.21,1290.16 252.36,1800.2 -127.21,274.99 -331.36,449.87 -661.76,523.57 75.03,-217.6 150.45,-391.85 193.55,-573.71 42.61,-179.94 52.64,-367.63 76.91,-551.93 -17.3,-3.09 -34.69,-6.16 -52.08,-9.25 -112.28,229.92 -224.54,459.91 -351.22,719.33 -238.13,-502.77 11.22,-1335.07 542.23,-1908.2z"/>
   <path class="fil1" d="M43863.05 17928.71c-104.37,102.24 -265.49,146.5 -400.7,217.35 -12.01,-24.75 -24.02,-49.42 -36.12,-74.16 192.27,-356.25 319.72,-725.49 235.3,-1186.35 -112.28,223.83 -201.08,401.09 -315.32,628.94 -189.28,-732.28 67.69,-1499.66 561.82,-1763.36 96.62,342.43 211.19,676.79 282.66,1020.16 90.52,434.29 -3.57,839.9 -327.64,1157.41z"/>
   <path class="fil1" d="M38997.18 21782.11c443.95,-362.36 687.21,-826.7 621.06,-1126.82 -157.18,167.69 -331.05,353.19 -504.83,538.57 -23.81,-22.29 -47.52,-44.57 -71.31,-66.88 162.39,-686.04 615.98,-1129.6 1225.63,-1470.58 135.68,1114.4 -295.85,2070.28 -1270.54,2125.71z"/>
   <path class="fil1" d="M40345.66 22446.39c-285.81,-33.29 -569.65,-98.51 -720.51,-437.86 425.37,5.22 831.05,86.1 1271.57,-141.67 -195.36,-5.62 -319.97,-1.18 -442.52,-14.94 -127.59,-14.32 -253.23,-46.25 -413.72,-77 437.06,-321.08 1416.02,-333.58 1886.28,-46.01 -414.68,497.14 -915.38,794.99 -1581.1,717.49z"/>
   <path class="fil1" d="M44548.79 17823.86c648.3,-376.8 742.31,-468.13 777.57,-741.44 -224.7,125.55 -458.16,256.01 -691.72,386.54 266.2,-792.14 991.45,-865.59 1604.52,-1140.11 -77.66,985.54 -1001.04,1789.38 -1690.38,1495.02z"/>
   <path class="fil1" d="M47221.84 18267.23c-586.49,823.77 -1263.75,1564.5 -2094.09,2151.24 -201.31,142.15 -427.82,248.56 -642.71,371.43 -32.27,-35.41 -64.45,-70.75 -96.7,-106.09 2265.74,-1537.07 3710.22,-3669.97 4583.08,-6221.12 13.76,101.44 -1.03,183.91 -24.43,263.92 -374.51,1277.83 -953.82,2457.38 -1725.16,3540.63z"/>
   <path class="fil1" d="M48000.04 19358.48c-1506.72,1764.55 -3367.63,2941 -5659.84,3393.72 -165.39,32.66 -341.64,10.2 -512.82,13.3 -5.36,-42.63 -10.74,-85.23 -16.12,-127.87 2440.84,-425.81 4517.13,-1520.79 6218.83,-3435.94 -21.84,118.14 -18.74,143.6 -30.05,156.79z"/>
   <path class="fil1" d="M44424.89 14686.19c470.11,-1404.72 940.24,-2809.44 1423.71,-4254.11 -252.69,1511.16 -616.05,2953.76 -1423.71,4254.11z"/>
   <path class="fil1" d="M46631.51 15894.29c532.09,-1326.36 1064.2,-2652.83 1620.66,-4039.85 -345.28,1468.47 -752.29,2843.6 -1620.66,4039.85z"/>
   <path class="fil1" d="M41652.39 17516.44c532.09,-1326.37 1064.2,-2652.83 1620.66,-4039.85 -345.28,1468.46 -752.29,2843.62 -1620.66,4039.85z"/>
   <path class="fil1" d="M46339.38 13648.91c-37.32,-10.84 -74.64,-21.75 -111.95,-32.58 291.42,-952.79 582.93,-1905.58 874.44,-2858.39 -129.12,999.61 -346.84,1973.92 -762.49,2890.97z"/>
   <path class="fil1" d="M40335.74 18338.21c-37.31,-10.82 -74.63,-21.74 -111.94,-32.56 291.42,-952.79 582.93,-1905.6 874.43,-2858.39 -129.11,999.6 -346.84,1973.91 -762.49,2890.95z"/>
   <path class="fil1" d="M24050.12 28407.88c166.37,-919.57 166.68,-927.23 63.18,-1143.33 -108.72,256.41 -225.72,532.57 -342.8,808.82 -31.96,-6.48 -63.9,-12.95 -95.75,-19.45 -313.49,-868.5 235.22,-1523.09 574.08,-2242.55 671.41,819.73 546.18,2344.79 -198.7,2596.51z"/>
   <path class="fil1" d="M23466.82 29891.88c-32.1,-423.85 -128.8,-822.41 -464.82,-1181.84 27.76,261.55 49.74,468.52 78.04,734.66 -582.52,-539.86 -790.46,-1363.69 -503.23,-1876.89 279.49,247.78 570.29,478.42 828.2,741.22 326.14,332.54 472.96,744.29 366.62,1208.64 -34.25,149.51 -151.57,280.03 -230.86,419.28l-73.93 -45.07z"/>
   <path class="fil1" d="M24533.82 29423.83c600.97,-508.61 681.38,-620.33 667.62,-909.38 -209.21,171.09 -426.63,348.91 -644.04,526.63 129.65,-867.71 865.9,-1076.84 1449.22,-1473.26 100.88,1032.95 -706.03,2033.67 -1472.8,1856z"/>
   <path class="fil1" d="M12945.49 25461.04c94.64,-24.81 229.14,-120.96 316.9,-169.03 3225.63,-2030.99 7306.02,-2243.98 10911.17,-1204.86 778.76,230.55 1977.62,623.03 2763.03,795.4 1174.9,303.06 2401.24,474.21 3611.47,546.55 435.55,3.97 902.74,18.68 1336.79,-14.23 0,0 178.38,-8.85 178.38,-8.85l89.18 -4.35c178.37,-20.07 292.06,-33.91 443.01,-50.92 588.69,-62.15 1180.03,-197.18 1744.12,-378.15 336.74,-123.02 676.08,-248.1 980.47,-442.52 -385.11,291.04 -829.93,499.14 -1284.53,665.48 -2546.8,892.7 -5336.57,575.89 -7904.7,-64.6 -440.15,-127.76 -1623.67,-477.86 -2078.51,-612.58 -3419.42,-992.16 -7209.56,-918.56 -10448.01,648.65 0,0 -325.91,154.64 -325.91,154.64l-163.34 77.42c-55.66,23.77 -109.34,53.27 -169.52,61.96z"/>
  </g>
 </g>
</svg>
